<mxfile modified="2023-05-27T10:34:00.102Z" host="app.diagrams.net" agent="Mozilla/5.0 (Windows NT 10.0; Win64; x64) AppleWebKit/537.36 (KHTML, like Gecko) Chrome/113.0.0.0 Safari/537.36 Edg/113.0.1774.50" etag="yyJFVJMQPzQuMwi6L7CN" version="21.3.4" type="device">
  <diagram id="Ht1M8jgEwFfnCIfOTk4-" name="概要">
    <mxGraphModel dx="3291" dy="2039" grid="1" gridSize="10" guides="1" tooltips="1" connect="1" arrows="1" fold="1" page="1" pageScale="1" pageWidth="1169" pageHeight="827" math="0" shadow="0">
      <root>
        <mxCell id="0" />
        <mxCell id="_YhAjXCerhe2au6eAmLn-9" value="background" style="locked=1;" parent="0" />
        <mxCell id="1n1UiVPS4ju37flqdLGo-13" style="edgeStyle=orthogonalEdgeStyle;rounded=0;orthogonalLoop=1;jettySize=auto;html=1;entryX=0;entryY=0.47;entryDx=0;entryDy=0;entryPerimeter=0;" parent="_YhAjXCerhe2au6eAmLn-9" source="_YhAjXCerhe2au6eAmLn-29" target="_YhAjXCerhe2au6eAmLn-32" edge="1">
          <mxGeometry relative="1" as="geometry">
            <Array as="points">
              <mxPoint x="-370" y="-96" />
              <mxPoint x="-370" y="-73" />
            </Array>
          </mxGeometry>
        </mxCell>
        <mxCell id="_YhAjXCerhe2au6eAmLn-29" value="" style="fillColor=#EFF0F3;strokeColor=none;dashed=0;verticalAlign=top;fontStyle=0;fontColor=#232F3D;fontSize=20;" parent="_YhAjXCerhe2au6eAmLn-9" vertex="1">
          <mxGeometry x="-840" y="-210" width="290" height="228" as="geometry" />
        </mxCell>
        <mxCell id="1n1UiVPS4ju37flqdLGo-11" style="edgeStyle=orthogonalEdgeStyle;rounded=0;orthogonalLoop=1;jettySize=auto;html=1;entryX=0;entryY=0.47;entryDx=0;entryDy=0;entryPerimeter=0;" parent="_YhAjXCerhe2au6eAmLn-9" source="_YhAjXCerhe2au6eAmLn-30" target="_YhAjXCerhe2au6eAmLn-32" edge="1">
          <mxGeometry relative="1" as="geometry">
            <Array as="points">
              <mxPoint x="-370" y="126" />
              <mxPoint x="-370" y="-73" />
            </Array>
          </mxGeometry>
        </mxCell>
        <mxCell id="_YhAjXCerhe2au6eAmLn-30" value="" style="fillColor=#EFF0F3;strokeColor=none;dashed=0;verticalAlign=top;fontStyle=0;fontColor=#232F3D;fontSize=20;" parent="_YhAjXCerhe2au6eAmLn-9" vertex="1">
          <mxGeometry x="-840" y="30" width="290" height="192" as="geometry" />
        </mxCell>
        <mxCell id="_YhAjXCerhe2au6eAmLn-32" value="&lt;font style=&quot;font-size: 20px;&quot;&gt;Internet&lt;/font&gt;" style="outlineConnect=0;dashed=0;verticalLabelPosition=bottom;verticalAlign=top;align=center;html=1;shape=mxgraph.aws3.internet;fillColor=#D2D3D3;gradientColor=none;" parent="_YhAjXCerhe2au6eAmLn-9" vertex="1">
          <mxGeometry x="370" y="-110" width="79.5" height="79.5" as="geometry" />
        </mxCell>
        <mxCell id="_YhAjXCerhe2au6eAmLn-33" value="&lt;font style=&quot;font-size: 20px;&quot;&gt;保守担当者&lt;/font&gt;" style="sketch=0;outlineConnect=0;fontColor=#232F3E;gradientColor=none;fillColor=#232F3D;strokeColor=none;dashed=0;verticalLabelPosition=bottom;verticalAlign=top;align=center;html=1;fontSize=12;fontStyle=0;aspect=fixed;pointerEvents=1;shape=mxgraph.aws4.users;" parent="_YhAjXCerhe2au6eAmLn-9" vertex="1">
          <mxGeometry x="-742" y="82" width="78" height="78" as="geometry" />
        </mxCell>
        <mxCell id="_YhAjXCerhe2au6eAmLn-34" value="" style="fillColor=#EFF0F3;strokeColor=none;dashed=0;verticalAlign=top;fontStyle=0;fontColor=#232F3D;fontSize=20;" parent="_YhAjXCerhe2au6eAmLn-9" vertex="1">
          <mxGeometry x="-897" y="649" width="290" height="262" as="geometry" />
        </mxCell>
        <mxCell id="_YhAjXCerhe2au6eAmLn-35" value="&lt;font style=&quot;font-size: 20px;&quot;&gt;システム&lt;/font&gt;" style="sketch=0;outlineConnect=0;fontColor=#232F3E;gradientColor=none;fillColor=#232F3D;strokeColor=none;dashed=0;verticalLabelPosition=bottom;verticalAlign=top;align=center;html=1;fontSize=12;fontStyle=0;aspect=fixed;pointerEvents=1;shape=mxgraph.aws4.traditional_server;" parent="_YhAjXCerhe2au6eAmLn-9" vertex="1">
          <mxGeometry x="-750" y="730" width="45" height="78" as="geometry" />
        </mxCell>
        <mxCell id="_YhAjXCerhe2au6eAmLn-37" value="" style="sketch=0;outlineConnect=0;fontColor=#232F3E;gradientColor=none;fillColor=#232F3D;strokeColor=none;dashed=0;verticalLabelPosition=bottom;verticalAlign=top;align=center;html=1;fontSize=12;fontStyle=0;aspect=fixed;pointerEvents=1;shape=mxgraph.aws4.client;" parent="_YhAjXCerhe2au6eAmLn-9" vertex="1">
          <mxGeometry x="-877" y="691" width="78" height="76" as="geometry" />
        </mxCell>
        <mxCell id="_YhAjXCerhe2au6eAmLn-38" value="" style="verticalLabelPosition=bottom;html=1;verticalAlign=top;align=center;shape=mxgraph.floorplan.printer;fontSize=20;" parent="_YhAjXCerhe2au6eAmLn-9" vertex="1">
          <mxGeometry x="-877" y="779" width="70" height="60" as="geometry" />
        </mxCell>
        <mxCell id="_YhAjXCerhe2au6eAmLn-39" value="Customer Network" style="points=[[0,0],[0.25,0],[0.5,0],[0.75,0],[1,0],[1,0.25],[1,0.5],[1,0.75],[1,1],[0.75,1],[0.5,1],[0.25,1],[0,1],[0,0.75],[0,0.5],[0,0.25]];outlineConnect=0;gradientColor=none;html=1;whiteSpace=wrap;fontSize=12;fontStyle=0;container=1;pointerEvents=0;collapsible=0;recursiveResize=0;shape=mxgraph.aws4.group;grIcon=mxgraph.aws4.group_corporate_data_center;strokeColor=#5A6C86;fillColor=none;verticalAlign=top;align=left;spacingLeft=30;fontColor=#5A6C86;dashed=0;" parent="_YhAjXCerhe2au6eAmLn-9" vertex="1">
          <mxGeometry x="-947" y="622" width="370" height="318" as="geometry" />
        </mxCell>
        <mxCell id="_YhAjXCerhe2au6eAmLn-40" value="" style="sketch=0;outlineConnect=0;fontColor=#232F3E;gradientColor=none;fillColor=#232F3D;strokeColor=none;dashed=0;verticalLabelPosition=bottom;verticalAlign=top;align=center;html=1;fontSize=12;fontStyle=0;aspect=fixed;pointerEvents=1;shape=mxgraph.aws4.client;" parent="_YhAjXCerhe2au6eAmLn-9" vertex="1">
          <mxGeometry x="-820" y="-180" width="78" height="76" as="geometry" />
        </mxCell>
        <mxCell id="_YhAjXCerhe2au6eAmLn-41" value="エンドユーザ" style="sketch=0;outlineConnect=0;fontColor=#232F3E;gradientColor=none;fillColor=#232F3D;strokeColor=none;dashed=0;verticalLabelPosition=bottom;verticalAlign=top;align=center;html=1;fontSize=12;fontStyle=0;aspect=fixed;pointerEvents=1;shape=mxgraph.aws4.user;" parent="_YhAjXCerhe2au6eAmLn-9" vertex="1">
          <mxGeometry x="-730" y="-142" width="78" height="78" as="geometry" />
        </mxCell>
        <mxCell id="_YhAjXCerhe2au6eAmLn-42" value="" style="sketch=0;outlineConnect=0;fontColor=#232F3E;gradientColor=none;fillColor=#232F3D;strokeColor=none;dashed=0;verticalLabelPosition=bottom;verticalAlign=top;align=center;html=1;fontSize=12;fontStyle=0;aspect=fixed;pointerEvents=1;shape=mxgraph.aws4.mobile_client;" parent="_YhAjXCerhe2au6eAmLn-9" vertex="1">
          <mxGeometry x="-801.5" y="-90" width="41" height="78" as="geometry" />
        </mxCell>
        <mxCell id="_YhAjXCerhe2au6eAmLn-43" value="&lt;font style=&quot;font-size: 20px;&quot;&gt;お客様DNSサーバ&lt;/font&gt;" style="sketch=0;points=[[0.015,0.015,0],[0.985,0.015,0],[0.985,0.985,0],[0.015,0.985,0],[0.25,0,0],[0.5,0,0],[0.75,0,0],[1,0.25,0],[1,0.5,0],[1,0.75,0],[0.75,1,0],[0.5,1,0],[0.25,1,0],[0,0.75,0],[0,0.5,0],[0,0.25,0]];verticalLabelPosition=bottom;html=1;verticalAlign=top;aspect=fixed;align=center;pointerEvents=1;shape=mxgraph.cisco19.dns_server;fillColor=#005073;strokeColor=none;" parent="_YhAjXCerhe2au6eAmLn-9" vertex="1">
          <mxGeometry x="490" y="40" width="44" height="80" as="geometry" />
        </mxCell>
        <mxCell id="1" value="Network" style="locked=1;" parent="0" />
        <mxCell id="ZLKoDYup2BnvPta4WX5Q-3" style="edgeStyle=orthogonalEdgeStyle;rounded=0;orthogonalLoop=1;jettySize=auto;html=1;entryX=1;entryY=0.47;entryDx=0;entryDy=0;entryPerimeter=0;fontSize=20;" parent="1" edge="1">
          <mxGeometry relative="1" as="geometry">
            <Array as="points">
              <mxPoint x="-680" y="-73" />
            </Array>
            <mxPoint x="-679.9999999999995" y="150" as="sourcePoint" />
          </mxGeometry>
        </mxCell>
        <mxCell id="X-Rb7tALruExzaYce6ZM-6" style="edgeStyle=orthogonalEdgeStyle;rounded=0;orthogonalLoop=1;jettySize=auto;html=1;" parent="1" target="l94m5lOSkRVmrryYR3GY-14" edge="1">
          <mxGeometry relative="1" as="geometry">
            <Array as="points">
              <mxPoint x="409" y="640" />
              <mxPoint x="114" y="640" />
            </Array>
            <mxPoint x="409.0588235294117" y="490.9991136565077" as="sourcePoint" />
          </mxGeometry>
        </mxCell>
        <mxCell id="X-Rb7tALruExzaYce6ZM-7" style="edgeStyle=orthogonalEdgeStyle;rounded=0;orthogonalLoop=1;jettySize=auto;html=1;jumpStyle=arc;" parent="1" target="l94m5lOSkRVmrryYR3GY-15" edge="1">
          <mxGeometry relative="1" as="geometry">
            <Array as="points">
              <mxPoint x="409" y="630" />
              <mxPoint x="-86" y="630" />
            </Array>
            <mxPoint x="409.0588235294117" y="490.9991136565077" as="sourcePoint" />
          </mxGeometry>
        </mxCell>
        <mxCell id="X-Rb7tALruExzaYce6ZM-8" style="edgeStyle=orthogonalEdgeStyle;rounded=0;orthogonalLoop=1;jettySize=auto;html=1;exitX=0.5;exitY=0;exitDx=0;exitDy=0;entryX=0;entryY=0.5;entryDx=0;entryDy=0;entryPerimeter=0;jumpStyle=arc;" parent="1" edge="1">
          <mxGeometry relative="1" as="geometry">
            <Array as="points">
              <mxPoint x="-86" y="900" />
              <mxPoint x="32" y="900" />
              <mxPoint x="32" y="976" />
            </Array>
            <mxPoint x="80" y="975.75" as="targetPoint" />
            <mxPoint x="-86" y="780.0000000000002" as="sourcePoint" />
          </mxGeometry>
        </mxCell>
        <mxCell id="X-Rb7tALruExzaYce6ZM-9" style="edgeStyle=orthogonalEdgeStyle;rounded=0;orthogonalLoop=1;jettySize=auto;html=1;exitX=0.5;exitY=0;exitDx=0;exitDy=0;entryX=0.5;entryY=0;entryDx=0;entryDy=0;entryPerimeter=0;jumpStyle=arc;" parent="1" source="l94m5lOSkRVmrryYR3GY-16" edge="1">
          <mxGeometry relative="1" as="geometry">
            <Array as="points">
              <mxPoint x="114" y="755" />
              <mxPoint x="120" y="755" />
              <mxPoint x="120" y="881" />
            </Array>
            <mxPoint x="119" y="936.75" as="targetPoint" />
          </mxGeometry>
        </mxCell>
        <mxCell id="_YhAjXCerhe2au6eAmLn-10" value="AWS Cloud" style="points=[[0,0],[0.25,0],[0.5,0],[0.75,0],[1,0],[1,0.25],[1,0.5],[1,0.75],[1,1],[0.75,1],[0.5,1],[0.25,1],[0,1],[0,0.75],[0,0.5],[0,0.25]];outlineConnect=0;gradientColor=none;html=1;whiteSpace=wrap;fontSize=12;fontStyle=0;shape=mxgraph.aws4.group;grIcon=mxgraph.aws4.group_aws_cloud_alt;strokeColor=#232F3E;fillColor=none;verticalAlign=top;align=left;spacingLeft=30;fontColor=#232F3E;dashed=0;labelBackgroundColor=#ffffff;container=1;pointerEvents=0;collapsible=0;recursiveResize=0;" parent="1" vertex="1">
          <mxGeometry x="-310" y="190" width="1180" height="1050" as="geometry" />
        </mxCell>
        <mxCell id="_YhAjXCerhe2au6eAmLn-11" value="Region(ap-northeast-1)" style="points=[[0,0],[0.25,0],[0.5,0],[0.75,0],[1,0],[1,0.25],[1,0.5],[1,0.75],[1,1],[0.75,1],[0.5,1],[0.25,1],[0,1],[0,0.75],[0,0.5],[0,0.25]];outlineConnect=0;gradientColor=none;html=1;whiteSpace=wrap;fontSize=12;fontStyle=0;container=1;pointerEvents=0;collapsible=0;recursiveResize=0;shape=mxgraph.aws4.group;grIcon=mxgraph.aws4.group_region;strokeColor=#147EBA;fillColor=none;verticalAlign=top;align=left;spacingLeft=30;fontColor=#147EBA;dashed=1;" parent="_YhAjXCerhe2au6eAmLn-10" vertex="1">
          <mxGeometry x="30" y="30" width="1120" height="1000" as="geometry" />
        </mxCell>
        <mxCell id="_YhAjXCerhe2au6eAmLn-12" value="VPC(10.2.0.0/16)" style="points=[[0,0],[0.25,0],[0.5,0],[0.75,0],[1,0],[1,0.25],[1,0.5],[1,0.75],[1,1],[0.75,1],[0.5,1],[0.25,1],[0,1],[0,0.75],[0,0.5],[0,0.25]];outlineConnect=0;gradientColor=none;html=1;whiteSpace=wrap;fontSize=12;fontStyle=0;container=1;pointerEvents=0;collapsible=0;recursiveResize=0;shape=mxgraph.aws4.group;grIcon=mxgraph.aws4.group_vpc;strokeColor=#248814;fillColor=none;verticalAlign=top;align=left;spacingLeft=30;fontColor=#AAB7B8;dashed=0;" parent="_YhAjXCerhe2au6eAmLn-11" vertex="1">
          <mxGeometry x="20" y="50" width="1090" height="830" as="geometry" />
        </mxCell>
        <mxCell id="_YhAjXCerhe2au6eAmLn-13" value="Private subnet(10.2.110.0/24)" style="points=[[0,0],[0.25,0],[0.5,0],[0.75,0],[1,0],[1,0.25],[1,0.5],[1,0.75],[1,1],[0.75,1],[0.5,1],[0.25,1],[0,1],[0,0.75],[0,0.5],[0,0.25]];outlineConnect=0;gradientColor=none;html=1;whiteSpace=wrap;fontSize=12;fontStyle=0;container=1;pointerEvents=0;collapsible=0;recursiveResize=0;shape=mxgraph.aws4.group;grIcon=mxgraph.aws4.group_security_group;grStroke=0;strokeColor=#147EBA;fillColor=#E6F2F8;verticalAlign=top;align=left;spacingLeft=30;fontColor=#147EBA;dashed=0;" parent="_YhAjXCerhe2au6eAmLn-12" vertex="1">
          <mxGeometry x="40" y="340" width="620" height="280" as="geometry" />
        </mxCell>
        <mxCell id="_YhAjXCerhe2au6eAmLn-14" value="Public subnet(10.2.10.0/24)" style="points=[[0,0],[0.25,0],[0.5,0],[0.75,0],[1,0],[1,0.25],[1,0.5],[1,0.75],[1,1],[0.75,1],[0.5,1],[0.25,1],[0,1],[0,0.75],[0,0.5],[0,0.25]];outlineConnect=0;gradientColor=none;html=1;whiteSpace=wrap;fontSize=12;fontStyle=0;container=1;pointerEvents=0;collapsible=0;recursiveResize=0;shape=mxgraph.aws4.group;grIcon=mxgraph.aws4.group_security_group;grStroke=0;strokeColor=#248814;fillColor=#E9F3E6;verticalAlign=top;align=left;spacingLeft=30;fontColor=#248814;dashed=0;" parent="_YhAjXCerhe2au6eAmLn-12" vertex="1">
          <mxGeometry x="35" y="60" width="630" height="260" as="geometry" />
        </mxCell>
        <mxCell id="_YhAjXCerhe2au6eAmLn-15" value="Availability Zone a" style="fillColor=none;strokeColor=#147EBA;dashed=1;verticalAlign=top;fontStyle=0;fontColor=#147EBA;whiteSpace=wrap;html=1;" parent="_YhAjXCerhe2au6eAmLn-14" vertex="1">
          <mxGeometry x="-5" y="-32" width="635" height="790" as="geometry" />
        </mxCell>
        <mxCell id="_YhAjXCerhe2au6eAmLn-16" value="&lt;font style=&quot;&quot;&gt;&lt;span style=&quot;font-size: 20px;&quot;&gt;NAT Gateway&lt;/span&gt;&lt;br&gt;&lt;br&gt;&lt;/font&gt;" style="sketch=0;outlineConnect=0;fontColor=#232F3E;gradientColor=none;fillColor=#4D27AA;strokeColor=none;dashed=0;verticalLabelPosition=bottom;verticalAlign=top;align=center;html=1;fontSize=12;fontStyle=0;aspect=fixed;pointerEvents=1;shape=mxgraph.aws4.nat_gateway;" parent="_YhAjXCerhe2au6eAmLn-14" vertex="1">
          <mxGeometry x="375" y="70" width="78" height="78" as="geometry" />
        </mxCell>
        <mxCell id="_YhAjXCerhe2au6eAmLn-17" value="Private subnet(10.2.111.0/24)" style="points=[[0,0],[0.25,0],[0.5,0],[0.75,0],[1,0],[1,0.25],[1,0.5],[1,0.75],[1,1],[0.75,1],[0.5,1],[0.25,1],[0,1],[0,0.75],[0,0.5],[0,0.25]];outlineConnect=0;gradientColor=none;html=1;whiteSpace=wrap;fontSize=12;fontStyle=0;container=1;pointerEvents=0;collapsible=0;recursiveResize=0;shape=mxgraph.aws4.group;grIcon=mxgraph.aws4.group_security_group;grStroke=0;strokeColor=#147EBA;fillColor=#E6F2F8;verticalAlign=top;align=left;spacingLeft=30;fontColor=#147EBA;dashed=0;" parent="_YhAjXCerhe2au6eAmLn-12" vertex="1">
          <mxGeometry x="50" y="641.75" width="610" height="148.25" as="geometry" />
        </mxCell>
        <mxCell id="_YhAjXCerhe2au6eAmLn-18" value="Private subnet(10.2.120.0/24)" style="points=[[0,0],[0.25,0],[0.5,0],[0.75,0],[1,0],[1,0.25],[1,0.5],[1,0.75],[1,1],[0.75,1],[0.5,1],[0.25,1],[0,1],[0,0.75],[0,0.5],[0,0.25]];outlineConnect=0;gradientColor=none;html=1;whiteSpace=wrap;fontSize=12;fontStyle=0;container=1;pointerEvents=0;collapsible=0;recursiveResize=0;shape=mxgraph.aws4.group;grIcon=mxgraph.aws4.group_security_group;grStroke=0;strokeColor=#147EBA;fillColor=#E6F2F8;verticalAlign=top;align=left;spacingLeft=30;fontColor=#147EBA;dashed=0;" parent="_YhAjXCerhe2au6eAmLn-12" vertex="1">
          <mxGeometry x="700" y="641" width="224" height="148.25" as="geometry" />
        </mxCell>
        <mxCell id="_YhAjXCerhe2au6eAmLn-19" style="edgeStyle=orthogonalEdgeStyle;rounded=0;orthogonalLoop=1;jettySize=auto;html=1;startArrow=classic;startFill=1;" parent="_YhAjXCerhe2au6eAmLn-12" edge="1">
          <mxGeometry relative="1" as="geometry">
            <mxPoint x="418" y="705.8235294117649" as="sourcePoint" />
          </mxGeometry>
        </mxCell>
        <mxCell id="_YhAjXCerhe2au6eAmLn-20" value="Public subnet(10.2.20.0/24)" style="points=[[0,0],[0.25,0],[0.5,0],[0.75,0],[1,0],[1,0.25],[1,0.5],[1,0.75],[1,1],[0.75,1],[0.5,1],[0.25,1],[0,1],[0,0.75],[0,0.5],[0,0.25]];outlineConnect=0;gradientColor=none;html=1;whiteSpace=wrap;fontSize=12;fontStyle=0;container=1;pointerEvents=0;collapsible=0;recursiveResize=0;shape=mxgraph.aws4.group;grIcon=mxgraph.aws4.group_security_group;grStroke=0;strokeColor=#248814;fillColor=#E9F3E6;verticalAlign=top;align=left;spacingLeft=30;fontColor=#248814;dashed=0;" parent="_YhAjXCerhe2au6eAmLn-12" vertex="1">
          <mxGeometry x="690" y="60" width="395" height="263.25" as="geometry" />
        </mxCell>
        <mxCell id="_YhAjXCerhe2au6eAmLn-21" value="&lt;font style=&quot;font-size: 20px;&quot;&gt;Virtual Private Gateway&lt;/font&gt;" style="sketch=0;outlineConnect=0;fontColor=#232F3E;gradientColor=none;fillColor=#4D27AA;strokeColor=none;dashed=0;verticalLabelPosition=bottom;verticalAlign=top;align=center;html=1;fontSize=12;fontStyle=0;aspect=fixed;pointerEvents=1;shape=mxgraph.aws4.vpn_gateway;" parent="_YhAjXCerhe2au6eAmLn-12" vertex="1">
          <mxGeometry x="-28" y="430" width="78" height="78" as="geometry" />
        </mxCell>
        <mxCell id="_YhAjXCerhe2au6eAmLn-22" value="Availability Zone c" style="fillColor=none;strokeColor=#147EBA;dashed=1;verticalAlign=top;fontStyle=0;fontColor=#147EBA;whiteSpace=wrap;html=1;" parent="_YhAjXCerhe2au6eAmLn-12" vertex="1">
          <mxGeometry x="690" y="28" width="390" height="790" as="geometry" />
        </mxCell>
        <mxCell id="_YhAjXCerhe2au6eAmLn-23" value="&lt;font style=&quot;font-size: 20px;&quot;&gt;Internet Gateway&lt;/font&gt;" style="sketch=0;outlineConnect=0;fontColor=#232F3E;gradientColor=none;fillColor=#4D27AA;strokeColor=none;dashed=0;verticalLabelPosition=bottom;verticalAlign=top;align=center;html=1;fontSize=12;fontStyle=0;aspect=fixed;pointerEvents=1;shape=mxgraph.aws4.internet_gateway;" parent="_YhAjXCerhe2au6eAmLn-11" vertex="1">
          <mxGeometry x="650" width="78" height="78" as="geometry" />
        </mxCell>
        <mxCell id="_YhAjXCerhe2au6eAmLn-24" style="edgeStyle=orthogonalEdgeStyle;rounded=0;orthogonalLoop=1;jettySize=auto;html=1;fontSize=20;endArrow=classic;endFill=1;" parent="_YhAjXCerhe2au6eAmLn-11" source="_YhAjXCerhe2au6eAmLn-16" target="_YhAjXCerhe2au6eAmLn-23" edge="1">
          <mxGeometry relative="1" as="geometry">
            <Array as="points">
              <mxPoint x="470" y="30" />
            </Array>
          </mxGeometry>
        </mxCell>
        <mxCell id="_YhAjXCerhe2au6eAmLn-26" style="edgeStyle=orthogonalEdgeStyle;rounded=0;orthogonalLoop=1;jettySize=auto;html=1;fontSize=20;endArrow=none;endFill=0;" parent="1" source="_YhAjXCerhe2au6eAmLn-27" target="_YhAjXCerhe2au6eAmLn-21" edge="1">
          <mxGeometry relative="1" as="geometry" />
        </mxCell>
        <mxCell id="_YhAjXCerhe2au6eAmLn-27" value="&lt;font style=&quot;font-size: 20px;&quot;&gt;VPN Connection&lt;/font&gt;" style="sketch=0;outlineConnect=0;fontColor=#232F3E;gradientColor=none;fillColor=#4D27AA;strokeColor=none;dashed=0;verticalLabelPosition=bottom;verticalAlign=top;align=center;html=1;fontSize=12;fontStyle=0;aspect=fixed;pointerEvents=1;shape=mxgraph.aws4.vpn_connection;" parent="1" vertex="1">
          <mxGeometry x="-477" y="700" width="70" height="78" as="geometry" />
        </mxCell>
        <mxCell id="1n1UiVPS4ju37flqdLGo-4" style="edgeStyle=orthogonalEdgeStyle;rounded=0;orthogonalLoop=1;jettySize=auto;html=1;strokeColor=none;" parent="1" source="_YhAjXCerhe2au6eAmLn-45" target="_YhAjXCerhe2au6eAmLn-27" edge="1">
          <mxGeometry relative="1" as="geometry" />
        </mxCell>
        <mxCell id="1n1UiVPS4ju37flqdLGo-5" style="edgeStyle=orthogonalEdgeStyle;rounded=0;orthogonalLoop=1;jettySize=auto;html=1;endArrow=none;endFill=0;" parent="1" source="_YhAjXCerhe2au6eAmLn-45" target="_YhAjXCerhe2au6eAmLn-27" edge="1">
          <mxGeometry relative="1" as="geometry" />
        </mxCell>
        <mxCell id="_YhAjXCerhe2au6eAmLn-45" value="&lt;font style=&quot;font-size: 20px;&quot;&gt;Customer&lt;br style=&quot;&quot;&gt;Gateway&lt;/font&gt;" style="sketch=0;outlineConnect=0;fontColor=#232F3E;gradientColor=none;fillColor=#4D27AA;strokeColor=none;dashed=0;verticalLabelPosition=bottom;verticalAlign=top;align=center;html=1;fontSize=12;fontStyle=0;aspect=fixed;pointerEvents=1;shape=mxgraph.aws4.router;" parent="1" vertex="1">
          <mxGeometry x="-617" y="700" width="78" height="78" as="geometry" />
        </mxCell>
        <mxCell id="1n1UiVPS4ju37flqdLGo-21" style="edgeStyle=orthogonalEdgeStyle;rounded=0;orthogonalLoop=1;jettySize=auto;html=1;" parent="1" source="_YhAjXCerhe2au6eAmLn-23" target="MeUpYP_rghtp_DA777My-2" edge="1">
          <mxGeometry relative="1" as="geometry" />
        </mxCell>
        <mxCell id="9lL_jX5Dj0HgDGlmSRgf-1" value="Security" style="" parent="0" />
        <mxCell id="_4xElySQdQaPoNvNwegV-1" value="&#xa;alb-scg" style="rounded=1;arcSize=10;dashed=1;strokeColor=#ff0000;fillColor=none;gradientColor=none;dashPattern=8 4;strokeWidth=2;verticalAlign=bottom;fontColor=#FF3333;" parent="9lL_jX5Dj0HgDGlmSRgf-1" vertex="1">
          <mxGeometry x="280" y="380" width="250" height="160" as="geometry" />
        </mxCell>
        <mxCell id="_4xElySQdQaPoNvNwegV-2" value="bastion-scg" style="rounded=1;arcSize=10;dashed=1;strokeColor=#ff0000;fillColor=none;gradientColor=none;dashPattern=8 4;strokeWidth=2;verticalAlign=bottom;fontColor=#FF3333;" parent="9lL_jX5Dj0HgDGlmSRgf-1" vertex="1">
          <mxGeometry x="-150" y="380" width="250" height="160" as="geometry" />
        </mxCell>
        <mxCell id="_4xElySQdQaPoNvNwegV-3" value="app-scg" style="rounded=1;arcSize=10;dashed=1;strokeColor=#ff0000;fillColor=none;gradientColor=none;dashPattern=8 4;strokeWidth=2;verticalAlign=bottom;fontColor=#FF3333;" parent="9lL_jX5Dj0HgDGlmSRgf-1" vertex="1">
          <mxGeometry x="-200" y="660" width="220" height="170" as="geometry" />
        </mxCell>
        <mxCell id="_4xElySQdQaPoNvNwegV-4" value="app-scg" style="rounded=1;arcSize=10;dashed=1;strokeColor=#ff0000;fillColor=none;gradientColor=none;dashPattern=8 4;strokeWidth=2;verticalAlign=bottom;fontColor=#FF3333;" parent="9lL_jX5Dj0HgDGlmSRgf-1" vertex="1">
          <mxGeometry x="30" y="660" width="220" height="170" as="geometry" />
        </mxCell>
        <mxCell id="_4xElySQdQaPoNvNwegV-5" value="&#xa;backup-scg" style="rounded=1;arcSize=10;dashed=1;strokeColor=#ff0000;fillColor=none;gradientColor=none;dashPattern=8 4;strokeWidth=2;verticalAlign=bottom;fontColor=#FF3333;" parent="9lL_jX5Dj0HgDGlmSRgf-1" vertex="1">
          <mxGeometry x="261" y="660" width="220" height="170" as="geometry" />
        </mxCell>
        <mxCell id="_4xElySQdQaPoNvNwegV-6" value="&#xa;aurola-scg" style="rounded=1;arcSize=10;dashed=1;strokeColor=#ff0000;fillColor=none;gradientColor=none;dashPattern=8 4;strokeWidth=2;verticalAlign=bottom;fontColor=#FF3333;" parent="9lL_jX5Dj0HgDGlmSRgf-1" vertex="1">
          <mxGeometry x="30" y="910" width="590" height="160" as="geometry" />
        </mxCell>
        <mxCell id="jZwp_17LBuCgkXnS3Ao--1" value="&lt;font style=&quot;font-size: 20px;&quot;&gt;AWS WAF&lt;/font&gt;" style="sketch=0;points=[[0,0,0],[0.25,0,0],[0.5,0,0],[0.75,0,0],[1,0,0],[0,1,0],[0.25,1,0],[0.5,1,0],[0.75,1,0],[1,1,0],[0,0.25,0],[0,0.5,0],[0,0.75,0],[1,0.25,0],[1,0.5,0],[1,0.75,0]];outlineConnect=0;fontColor=#232F3E;gradientColor=#F54749;gradientDirection=north;fillColor=#C7131F;strokeColor=#ffffff;dashed=0;verticalLabelPosition=bottom;verticalAlign=top;align=center;html=1;fontSize=12;fontStyle=0;aspect=fixed;shape=mxgraph.aws4.resourceIcon;resIcon=mxgraph.aws4.waf;" parent="9lL_jX5Dj0HgDGlmSRgf-1" vertex="1">
          <mxGeometry x="440" y="370" width="78" height="78" as="geometry" />
        </mxCell>
        <mxCell id="l94m5lOSkRVmrryYR3GY-4" value="Application" style="" parent="0" />
        <mxCell id="l94m5lOSkRVmrryYR3GY-19" value="" style="group" parent="l94m5lOSkRVmrryYR3GY-4" vertex="1" connectable="0">
          <mxGeometry x="250" y="700" width="190" height="111" as="geometry" />
        </mxCell>
        <mxCell id="l94m5lOSkRVmrryYR3GY-12" value="&lt;font style=&quot;font-size: 20px;&quot;&gt;BKサーバ1&lt;/font&gt;" style="sketch=0;outlineConnect=0;fontColor=#232F3E;gradientColor=none;fillColor=#D45B07;strokeColor=none;dashed=0;verticalLabelPosition=bottom;verticalAlign=top;align=center;html=1;fontSize=12;fontStyle=0;aspect=fixed;pointerEvents=1;shape=mxgraph.aws4.instances;container=0;" parent="l94m5lOSkRVmrryYR3GY-19" vertex="1">
          <mxGeometry x="71" width="48" height="48" as="geometry" />
        </mxCell>
        <mxCell id="l94m5lOSkRVmrryYR3GY-20" value="" style="group" parent="l94m5lOSkRVmrryYR3GY-4" vertex="1" connectable="0">
          <mxGeometry x="44" y="709" width="140" height="116" as="geometry" />
        </mxCell>
        <mxCell id="l94m5lOSkRVmrryYR3GY-14" value="&lt;font style=&quot;font-size: 20px;&quot;&gt;APサーバ2&lt;/font&gt;" style="sketch=0;outlineConnect=0;fontColor=#232F3E;gradientColor=none;fillColor=#D45B07;strokeColor=none;dashed=0;verticalLabelPosition=bottom;verticalAlign=top;align=center;html=1;fontSize=12;fontStyle=0;aspect=fixed;pointerEvents=1;shape=mxgraph.aws4.instances;" parent="l94m5lOSkRVmrryYR3GY-20" vertex="1">
          <mxGeometry x="46" width="48" height="48" as="geometry" />
        </mxCell>
        <mxCell id="l94m5lOSkRVmrryYR3GY-16" value="&lt;br&gt;" style="text;html=1;strokeColor=none;fillColor=none;align=center;verticalAlign=middle;whiteSpace=wrap;rounded=0;" parent="l94m5lOSkRVmrryYR3GY-20" vertex="1">
          <mxGeometry y="66" width="140" height="50" as="geometry" />
        </mxCell>
        <mxCell id="l94m5lOSkRVmrryYR3GY-21" value="" style="group" parent="l94m5lOSkRVmrryYR3GY-4" vertex="1" connectable="0">
          <mxGeometry x="-156" y="709" width="140" height="121" as="geometry" />
        </mxCell>
        <mxCell id="l94m5lOSkRVmrryYR3GY-15" value="&lt;font style=&quot;font-size: 20px;&quot;&gt;APサーバ1&lt;/font&gt;" style="sketch=0;outlineConnect=0;fontColor=#232F3E;gradientColor=none;fillColor=#D45B07;strokeColor=none;dashed=0;verticalLabelPosition=bottom;verticalAlign=top;align=center;html=1;fontSize=12;fontStyle=0;aspect=fixed;pointerEvents=1;shape=mxgraph.aws4.instances;" parent="l94m5lOSkRVmrryYR3GY-21" vertex="1">
          <mxGeometry x="46" width="48" height="48" as="geometry" />
        </mxCell>
        <mxCell id="MeUpYP_rghtp_DA777My-1" value="" style="group" parent="l94m5lOSkRVmrryYR3GY-4" vertex="1" connectable="0">
          <mxGeometry x="-110" y="400" width="165" height="121" as="geometry" />
        </mxCell>
        <mxCell id="MeUpYP_rghtp_DA777My-2" value="&lt;font style=&quot;font-size: 20px;&quot;&gt;踏み台サーバ&lt;/font&gt;" style="sketch=0;outlineConnect=0;fontColor=#232F3E;gradientColor=none;fillColor=#D45B07;strokeColor=none;dashed=0;verticalLabelPosition=bottom;verticalAlign=top;align=center;html=1;fontSize=12;fontStyle=0;aspect=fixed;pointerEvents=1;shape=mxgraph.aws4.instances;container=0;" parent="MeUpYP_rghtp_DA777My-1" vertex="1">
          <mxGeometry x="61.65789473684211" width="41.41969705899688" height="41.41969705899688" as="geometry" />
        </mxCell>
        <mxCell id="MeUpYP_rghtp_DA777My-3" value="&lt;div style=&quot;box-sizing: border-box; font-family: -apple-system, BlinkMacSystemFont, &amp;quot;Segoe UI&amp;quot;, system-ui, &amp;quot;Apple Color Emoji&amp;quot;, &amp;quot;Segoe UI Emoji&amp;quot;, &amp;quot;Segoe UI Web&amp;quot;, sans-serif; font-size: 14px; text-align: start;&quot;&gt;&lt;br&gt;&lt;/div&gt;" style="text;html=1;strokeColor=none;fillColor=none;align=center;verticalAlign=middle;whiteSpace=wrap;rounded=0;container=0;" parent="MeUpYP_rghtp_DA777My-1" vertex="1">
          <mxGeometry y="77.39639639639638" width="165" height="43.6036036036036" as="geometry" />
        </mxCell>
        <mxCell id="X-Rb7tALruExzaYce6ZM-13" style="edgeStyle=orthogonalEdgeStyle;rounded=0;orthogonalLoop=1;jettySize=auto;html=1;exitX=0.5;exitY=0;exitDx=0;exitDy=0;jumpStyle=arc;" parent="l94m5lOSkRVmrryYR3GY-4" source="MeUpYP_rghtp_DA777My-3" target="l94m5lOSkRVmrryYR3GY-15" edge="1">
          <mxGeometry relative="1" as="geometry">
            <Array as="points">
              <mxPoint x="-27" y="457" />
              <mxPoint x="-30" y="457" />
              <mxPoint x="-30" y="615" />
              <mxPoint x="-86" y="615" />
            </Array>
          </mxGeometry>
        </mxCell>
        <mxCell id="X-Rb7tALruExzaYce6ZM-14" style="edgeStyle=orthogonalEdgeStyle;rounded=0;orthogonalLoop=1;jettySize=auto;html=1;jumpStyle=arc;" parent="l94m5lOSkRVmrryYR3GY-4" source="MeUpYP_rghtp_DA777My-2" target="l94m5lOSkRVmrryYR3GY-14" edge="1">
          <mxGeometry relative="1" as="geometry" />
        </mxCell>
        <mxCell id="X-Rb7tALruExzaYce6ZM-15" style="edgeStyle=orthogonalEdgeStyle;rounded=0;orthogonalLoop=1;jettySize=auto;html=1;jumpStyle=arc;" parent="l94m5lOSkRVmrryYR3GY-4" source="MeUpYP_rghtp_DA777My-2" target="l94m5lOSkRVmrryYR3GY-12" edge="1">
          <mxGeometry relative="1" as="geometry">
            <Array as="points">
              <mxPoint x="40" y="421" />
              <mxPoint x="40" y="580" />
              <mxPoint x="345" y="580" />
            </Array>
          </mxGeometry>
        </mxCell>
        <mxCell id="_YhAjXCerhe2au6eAmLn-2" value="&lt;font style=&quot;font-size: 20px;&quot;&gt;Aurora(Writer)&lt;/font&gt;" style="sketch=0;points=[[0,0,0],[0.25,0,0],[0.5,0,0],[0.75,0,0],[1,0,0],[0,1,0],[0.25,1,0],[0.5,1,0],[0.75,1,0],[1,1,0],[0,0.25,0],[0,0.5,0],[0,0.75,0],[1,0.25,0],[1,0.5,0],[1,0.75,0]];outlineConnect=0;fontColor=#232F3E;gradientColor=#4D72F3;gradientDirection=north;fillColor=#3334B9;strokeColor=#ffffff;dashed=0;verticalLabelPosition=bottom;verticalAlign=top;align=center;html=1;fontSize=12;fontStyle=0;aspect=fixed;shape=mxgraph.aws4.resourceIcon;resIcon=mxgraph.aws4.aurora;" parent="l94m5lOSkRVmrryYR3GY-4" vertex="1">
          <mxGeometry x="80" y="936.75" width="78" height="78" as="geometry" />
        </mxCell>
        <mxCell id="_YhAjXCerhe2au6eAmLn-3" value="&lt;font style=&quot;font-size: 20px;&quot;&gt;Aurora(Replica)&lt;/font&gt;" style="sketch=0;points=[[0,0,0],[0.25,0,0],[0.5,0,0],[0.75,0,0],[1,0,0],[0,1,0],[0.25,1,0],[0.5,1,0],[0.75,1,0],[1,1,0],[0,0.25,0],[0,0.5,0],[0,0.75,0],[1,0.25,0],[1,0.5,0],[1,0.75,0]];outlineConnect=0;fontColor=#232F3E;gradientColor=#4D72F3;gradientDirection=north;fillColor=#3334B9;strokeColor=#ffffff;dashed=0;verticalLabelPosition=bottom;verticalAlign=top;align=center;html=1;fontSize=12;fontStyle=0;aspect=fixed;shape=mxgraph.aws4.resourceIcon;resIcon=mxgraph.aws4.aurora;" parent="l94m5lOSkRVmrryYR3GY-4" vertex="1">
          <mxGeometry x="504" y="937" width="78" height="78" as="geometry" />
        </mxCell>
        <mxCell id="_YhAjXCerhe2au6eAmLn-4" value="&lt;font style=&quot;font-size: 20px;&quot;&gt;Applicattion LoadBalancer&lt;/font&gt;" style="sketch=0;outlineConnect=0;fontColor=#232F3E;gradientColor=none;fillColor=#4D27AA;strokeColor=none;dashed=0;verticalLabelPosition=bottom;verticalAlign=top;align=center;html=1;fontSize=12;fontStyle=0;aspect=fixed;pointerEvents=1;shape=mxgraph.aws4.application_load_balancer;" parent="l94m5lOSkRVmrryYR3GY-4" vertex="1">
          <mxGeometry x="370" y="413" width="78" height="78" as="geometry" />
        </mxCell>
        <mxCell id="_YhAjXCerhe2au6eAmLn-5" value="&lt;font style=&quot;font-size: 20px;&quot;&gt;S3&lt;/font&gt;" style="sketch=0;points=[[0,0,0],[0.25,0,0],[0.5,0,0],[0.75,0,0],[1,0,0],[0,1,0],[0.25,1,0],[0.5,1,0],[0.75,1,0],[1,1,0],[0,0.25,0],[0,0.5,0],[0,0.75,0],[1,0.25,0],[1,0.5,0],[1,0.75,0]];outlineConnect=0;fontColor=#232F3E;gradientColor=#60A337;gradientDirection=north;fillColor=#277116;strokeColor=#ffffff;dashed=0;verticalLabelPosition=bottom;verticalAlign=top;align=center;html=1;fontSize=12;fontStyle=0;aspect=fixed;shape=mxgraph.aws4.resourceIcon;resIcon=mxgraph.aws4.s3;" parent="l94m5lOSkRVmrryYR3GY-4" vertex="1">
          <mxGeometry x="-215.5" y="1120" width="78" height="78" as="geometry" />
        </mxCell>
        <mxCell id="_YhAjXCerhe2au6eAmLn-6" value="&lt;font style=&quot;font-size: 20px;&quot;&gt;CloudWatch&lt;/font&gt;" style="sketch=0;points=[[0,0,0],[0.25,0,0],[0.5,0,0],[0.75,0,0],[1,0,0],[0,1,0],[0.25,1,0],[0.5,1,0],[0.75,1,0],[1,1,0],[0,0.25,0],[0,0.5,0],[0,0.75,0],[1,0.25,0],[1,0.5,0],[1,0.75,0]];points=[[0,0,0],[0.25,0,0],[0.5,0,0],[0.75,0,0],[1,0,0],[0,1,0],[0.25,1,0],[0.5,1,0],[0.75,1,0],[1,1,0],[0,0.25,0],[0,0.5,0],[0,0.75,0],[1,0.25,0],[1,0.5,0],[1,0.75,0]];outlineConnect=0;fontColor=#232F3E;gradientColor=#F34482;gradientDirection=north;fillColor=#BC1356;strokeColor=#ffffff;dashed=0;verticalLabelPosition=bottom;verticalAlign=top;align=center;html=1;fontSize=12;fontStyle=0;aspect=fixed;shape=mxgraph.aws4.resourceIcon;resIcon=mxgraph.aws4.cloudwatch_2;" parent="l94m5lOSkRVmrryYR3GY-4" vertex="1">
          <mxGeometry x="-80.5" y="1120" width="78" height="78" as="geometry" />
        </mxCell>
        <mxCell id="_YhAjXCerhe2au6eAmLn-7" value="&lt;font style=&quot;font-size: 20px;&quot;&gt;ACM&lt;/font&gt;" style="sketch=0;points=[[0,0,0],[0.25,0,0],[0.5,0,0],[0.75,0,0],[1,0,0],[0,1,0],[0.25,1,0],[0.5,1,0],[0.75,1,0],[1,1,0],[0,0.25,0],[0,0.5,0],[0,0.75,0],[1,0.25,0],[1,0.5,0],[1,0.75,0]];outlineConnect=0;fontColor=#232F3E;gradientColor=#F54749;gradientDirection=north;fillColor=#C7131F;strokeColor=#ffffff;dashed=0;verticalLabelPosition=bottom;verticalAlign=top;align=center;html=1;fontSize=12;fontStyle=0;aspect=fixed;shape=mxgraph.aws4.resourceIcon;resIcon=mxgraph.aws4.certificate_manager_3;" parent="l94m5lOSkRVmrryYR3GY-4" vertex="1">
          <mxGeometry x="51.5" y="1120" width="78" height="78" as="geometry" />
        </mxCell>
        <mxCell id="_YhAjXCerhe2au6eAmLn-8" style="edgeStyle=orthogonalEdgeStyle;rounded=0;orthogonalLoop=1;jettySize=auto;html=1;fontSize=20;endArrow=none;endFill=0;" parent="l94m5lOSkRVmrryYR3GY-4" edge="1">
          <mxGeometry relative="1" as="geometry">
            <mxPoint x="409" y="298" as="sourcePoint" />
            <mxPoint x="409" y="413.00088634349186" as="targetPoint" />
          </mxGeometry>
        </mxCell>
        <mxCell id="1n1UiVPS4ju37flqdLGo-2" style="edgeStyle=orthogonalEdgeStyle;rounded=0;orthogonalLoop=1;jettySize=auto;html=1;" parent="l94m5lOSkRVmrryYR3GY-4" source="_YhAjXCerhe2au6eAmLn-32" target="_YhAjXCerhe2au6eAmLn-23" edge="1">
          <mxGeometry relative="1" as="geometry" />
        </mxCell>
      </root>
    </mxGraphModel>
  </diagram>
</mxfile>
